
<!-- sample rectangle -->
<svg data-v-0dd9719b="" version="1.0" xmlns="http://www.w3.org/2000/svg" xmlns:xlink="http://www.w3.org/1999/xlink" width="100%" height="100%"
  viewBox="0 0 340.000000 250.000000" preserveAspectRatio="xMidYMid meet" color-interpolation-filters="sRGB" style="margin: auto;">
    <rect data-v-0dd9719b="" x="0" y="0" width="100%" height="100%" fill="#0000" fill-opacity="1" class="background">
    </rect>
    <rect data-v-0dd9719b="" x="0" y="0" width="100%" height="100%" fill="url(#watermark)" fill-opacity="1" class="watermarklayer">
    </rect>
    <g data-v-0dd9719b="" fill="#00000" class="icon-text-wrapper icon-svg-group iconsvg" transform="translate(96.27827453613281,73.46847152709961)">
      <g class="iconsvg-imagesvg" transform="translate(34.72172546386719,0)">
        <g>
          <rect fill="#333333" fill-opacity="0" stroke-width="2" x="0" y="0" width="78" height="60.64705745142404" class="image-rect"> 
            </rect>
              <svg x="0" y="0" width="78" height="60.64705745142404" filtersec="colorsb3349827384" class="image-svg-svg primary" style="overflow: visible;">
                <svg xmlns="http://www.w3.org/2000/svg" viewBox="0 0 340.3999938964844 264.6700134277344">
                <defs>
                  <clipPath id="aa12d1a56-b4a7-412f-992f-571eb6828cf6">
                    <path fill="none" clip-rule="evenodd" d="M170.2 0l85.1 132.31 85.1 132.32H198.24l46.43-72.19L170.2 76.65 49.3 264.63H0l85.1-132.32L170.2 0z">
                      </path>
                    </clipPath>
                    </defs>
                    <g>
                      <g>
                      <g clip-path="url(#aa12d1a56-b4a7-412f-992f-571eb6828cf6)">
                      <path fill="#ed6a00" d="M0 0h.66v264.63H0z">
                      </path>
                    <path fill="#ed6a00" d="M0 0h1.99v264.63H0z">
                      </path>
                    <path fill="#ed6a00" d="M1.33 0h1.99v264.63H1.33z">
                      </path>
                    <path fill="#ed6c00" d="M2.66 0h1.99v264.63H2.66z">
                      </path>
                    <path fill="#ed6c00" d="M3.99 0h1.99v264.63H3.99z">
                      </path>
                    <path fill="#ed6c00" d="M5.32 0h1.99v264.63H5.32z">
                      </path>
                    <path fill="#ed6c00" d="M6.65 0h1.99v264.63H6.65z">
                      </path>
                    <path fill="#ed6f00" d="M7.98 0h1.99v264.63H7.98z">
                      </path>
                    <path fill="#ed6f00" d="M9.31 0h1.99v264.63H9.31z">
                      </path>
                    <path fill="#ed6f00" d="M10.64 0h1.99v264.63h-1.99z">
                      </path>
                    <path fill="#ed6f00" d="M11.97 0h1.99v264.63h-1.99z">
                      </path>
                    <path fill="#ed6f00" d="M13.3 0h1.99v264.63H13.3z">
                      </path>
                    <path fill="#ed6f00" d="M14.63 0h1.99v264.63h-1.99z">
                      </path>
                    <path fill="#ed7100" d="M15.96 0h1.99v264.63h-1.99z">
                      </path>
                    <path fill="#ed7100" d="M17.29 0h1.99v264.63h-1.99z">
                      </path>
                    <path fill="#ed7100" d="M18.62 0h1.99v264.63h-1.99z">
                      </path>
                    <path fill="#ed7100" d="M19.95 0h1.99v264.63h-1.99z">
                      </path>
                    <path fill="#ee7300" d="M21.27 0h1.99v264.63h-1.99z">
                      </path>
                    <path fill="#ee7300" d="M22.6 0h1.99v264.63H22.6z">
                      </path>
                    <path fill="#ee7300" d="M23.93 0h1.99v264.63h-1.99z">
                      </path>
                    <path fill="#ee7300" d="M25.26 0h1.99v264.63h-1.99z">
                      </path>
                    <path fill="#ee7300" d="M26.59 0h1.99v264.63h-1.99z">
                      </path>
                    <path fill="#ee7300" d="M27.92 0h1.99v264.63h-1.99z">
                      </path>
                    <path fill="#ee7500" d="M29.25 0h1.99v264.63h-1.99z">
                      </path>
                    <path fill="#ee7500" d="M30.58 0h1.99v264.63h-1.99z">
                      </path>
                    <path fill="#ee7500" d="M31.91 0h1.99v264.63h-1.99z">
                      </path>
                    <path fill="#ee7500" d="M33.24 0h1.99v264.63h-1.99z">
                      </path>
                    <path fill="#ee7800" d="M34.57 0h1.99v264.63h-1.99z">
                      </path>
                    <path fill="#ee7800" d="M35.9 0h1.99v264.63H35.9z">
                      </path>
                    <path fill="#ee7800" d="M37.23 0h1.99v264.63h-1.99z">
                      </path>
                    <path fill="#ee7800" d="M38.56 0h1.99v264.63h-1.99z">
                      </path>
                    <path fill="#ee7800" d="M39.89 0h1.99v264.63h-1.99z">
                      </path>
                    <path fill="#ee7800" d="M41.22 0h1.99v264.63h-1.99z">
                      </path>
                    <path fill="#ef7a00" d="M42.55 0h1.99v264.63h-1.99z">
                      </path>
                    <path fill="#ef7a00" d="M43.88 0h1.99v264.63h-1.99z">
                      </path>
                    <path fill="#ef7a00" d="M45.21 0h1.99v264.63h-1.99z">
                      </path>
                    <path fill="#ef7a00" d="M46.54 0h1.99v264.63h-1.99z">
                      </path>
                    <path fill="#ef7a00" d="M47.87 0h1.99v264.63h-1.99z">
                      </path>
                    <path fill="#ef7a00" d="M49.2 0h1.99v264.63H49.2z">
                      </path>
                    <path fill="#ef7c00" d="M50.53 0h1.99v264.63h-1.99z">
                      </path>
                    <path fill="#ef7c00" d="M51.86 0h1.99v264.63h-1.99z">
                      </path>
                    <path fill="#ef7c00" d="M53.19 0h1.99v264.63h-1.99z">
                      </path>
                    <path fill="#ef7c00" d="M54.52 0h1.99v264.63h-1.99z">
                      </path>
                    <path fill="#ef7e00" d="M55.85 0h1.99v264.63h-1.99z">
                      </path>
                    <path fill="#ef7e00" d="M57.18 0h1.99v264.63h-1.99z">
                      </path>
                    <path fill="#ef7e00" d="M58.51 0h1.99v264.63h-1.99z">
                      </path>
                    <path fill="#ef7e00" d="M59.84 0h1.99v264.63h-1.99z">
                      </path>
                    <path fill="#ef7e00" d="M61.17 0h1.99v264.63h-1.99z">
                      </path>
                    <path fill="#ef7e00" d="M62.5 0h1.99v264.63H62.5z">
                      </path>
                    <path fill="#f08000" d="M63.82 0h1.99v264.63h-1.99z">
                      </path>
                    <path fill="#f08000" d="M65.15 0h1.99v264.63h-1.99z">
                      </path>
                    <path fill="#f08000" d="M66.48 0h1.99v264.63h-1.99z">
                      </path>
                    <path fill="#f08300" d="M67.81 0h1.99v264.63h-1.99z">
                      </path>
                    <path fill="#f08300" d="M69.14 0h1.99v264.63h-1.99z">
                      </path>
                    <path fill="#f08300" d="M70.47 0h1.99v264.63h-1.99z">
                      </path>
                    <path fill="#f08300" d="M71.8 0h1.99v264.63H71.8z">
                      </path>
                    <path fill="#f08300" d="M73.13 0h1.99v264.63h-1.99z">
                      </path>
                    <path fill="#f08300" d="M74.46 0h1.99v264.63h-1.99z">
                      </path>
                    <path fill="#f08500" d="M75.79 0h1.99v264.63h-1.99z">
                      </path>
                    <path fill="#f08500" d="M77.12 0h1.99v264.63h-1.99z">
                      </path>
                    <path fill="#f08500" d="M78.45 0h1.99v264.63h-1.99z">
                      </path>
                    <path fill="#f08500" d="M79.78 0h1.99v264.63h-1.99z">
                      </path>
                    <path fill="#f18700" d="M81.11 0h1.99v264.63h-1.99z">
                      </path>
                    <path fill="#f18700" d="M82.44 0h1.99v264.63h-1.99z">
                      </path>
                    <path fill="#f18700" d="M83.77 0h1.99v264.63h-1.99z">
                      </path>
                    <path fill="#f18700" d="M85.1 0h1.99v264.63H85.1z">
                      </path>
                    <path fill="#f18700" d="M86.43 0h1.99v264.63h-1.99z">
                      </path>
                    <path fill="#f18700" d="M87.76 0h1.99v264.63h-1.99z">
                      </path>
                    <path fill="#f18900" d="M89.09 0h1.99v264.63h-1.99z">
                      </path>
                    <path fill="#f18900" d="M90.42 0h1.99v264.63h-1.99z">
                      </path>
                    <path fill="#f18900" d="M91.75 0h1.99v264.63h-1.99z">
                      </path>
                    <path fill="#f18900" d="M93.08 0h1.99v264.63h-1.99z">
                      </path>
                    <path fill="#f18b00" d="M94.41 0h1.99v264.63h-1.99z">
                      </path>
                    <path fill="#f18b00" d="M95.74 0h1.99v264.63h-1.99z">
                      </path>
                    <path fill="#f18b00" d="M97.07 0h1.99v264.63h-1.99z">
                      </path>
                    <path fill="#f18b00" d="M98.4 0h1.99v264.63H98.4z">
                      </path>
                    <path fill="#f18b00" d="M99.73 0h1.99v264.63h-1.99z">
                      </path>
                    <path fill="#f18b00" d="M101.06 0h1.99v264.63h-1.99z">
                      </path>
                    <path fill="#f18d00" d="M102.39 0h1.99v264.63h-1.99z">
                      </path>
                    <path fill="#f18d00" d="M103.72 0h1.99v264.63h-1.99z">
                      </path>
                    <path fill="#f18d00" d="M105.05 0h1.99v264.63h-1.99z">
                      </path>
                    <path fill="#f18d00" d="M106.37 0h1.99v264.63h-1.99z">
                      </path>
                    <path fill="#f18d00" d="M107.7 0h1.99v264.63h-1.99z">
                      </path>
                    <path fill="#f18d00" d="M109.03 0h1.99v264.63h-1.99z">
                      </path>
                    <path fill="#f28f00" d="M110.36 0h1.99v264.63h-1.99z">
                      </path>
                    <path fill="#f28f00" d="M111.69 0h1.99v264.63h-1.99z">
                      </path>
                    <path fill="#f28f00" d="M113.02 0h1.99v264.63h-1.99z">
                      </path>
                    <path fill="#f28f00" d="M114.35 0h1.99v264.63h-1.99z">
                      </path>
                    <path fill="#f29100" d="M115.68 0h1.99v264.63h-1.99z">
                      </path>
                    <path fill="#f29100" d="M117.01 0H119v264.63h-1.99z">
                      </path>
                    <path fill="#f29100" d="M118.34 0h1.99v264.63h-1.99z">
                      </path>
                    <path fill="#f29100" d="M119.67 0h1.99v264.63h-1.99z">
                      </path>
                    <path fill="#f29100" d="M121 0h1.99v264.63H121z">
                      </path>
                    <path fill="#f29100" d="M122.33 0h1.99v264.63h-1.99z">
                      </path>
                    <path fill="#f29300" d="M123.66 0h1.99v264.63h-1.99z">
                      </path>
                    <path fill="#f29300" d="M124.99 0h1.99v264.63h-1.99z">
                      </path>
                    <path fill="#f29300" d="M126.32 0h1.99v264.63h-1.99z">
                      </path>
                    <path fill="#f29300" d="M127.65 0h1.99v264.63h-1.99z">
                      </path>
                    <path fill="#f39500" d="M128.98 0h1.99v264.63h-1.99z">
                      </path>
                    <path fill="#f39500" d="M130.31 0h1.99v264.63h-1.99z">
                      </path>
                    <path fill="#f39500" d="M131.64 0h1.99v264.63h-1.99z">
                      </path>
                    <path fill="#f39500" d="M132.97 0h1.99v264.63h-1.99z">
                      </path>
                    <path fill="#f39500" d="M134.3 0h1.99v264.63h-1.99z">
                      </path>
                    <path fill="#f39800" d="M135.63 0h1.99v264.63h-1.99z">
                      </path>
                    <path fill="#f39800" d="M136.96 0h1.99v264.63h-1.99z">
                      </path>
                    <path fill="#f39800" d="M138.29 0h1.99v264.63h-1.99z">
                      </path>
                    <path fill="#f39800" d="M139.62 0h1.99v264.63h-1.99z">
                      </path>
                    <path fill="#f39a00" d="M140.95 0h1.99v264.63h-1.99z">
                      </path>
                    <path fill="#f39a00" d="M142.28 0h1.99v264.63h-1.99z">
                      </path>
                    <path fill="#f39a00" d="M143.61 0h1.99v264.63h-1.99z">
                      </path>
                    <path fill="#f39a00" d="M144.94 0h1.99v264.63h-1.99z">
                      </path>
                    <path fill="#f39a00" d="M146.27 0h1.99v264.63h-1.99z">
                      </path>
                    <path fill="#f39a00" d="M147.6 0h1.99v264.63h-1.99z">
                      </path>
                    <path fill="#f49c00" d="M148.92 0h1.99v264.63h-1.99z">
                      </path>
                    <path fill="#f49c00" d="M150.25 0h1.99v264.63h-1.99z">
                      </path>
                    <path fill="#f49c00" d="M151.58 0h1.99v264.63h-1.99z">
                      </path>
                    <path fill="#f49c00" d="M152.91 0h1.99v264.63h-1.99z">
                      </path>
                    <path fill="#f49e00" d="M154.24 0h1.99v264.63h-1.99z">
                      </path>
                    <path fill="#f49e00" d="M155.57 0h1.99v264.63h-1.99z">
                      </path>
                    <path fill="#f49e00" d="M156.9 0h1.99v264.63h-1.99z">
                      </path>
                    <path fill="#f49e00" d="M158.23 0h1.99v264.63h-1.99z">
                      </path>
                    <path fill="#f49e00" d="M159.56 0h1.99v264.63h-1.99z">
                      </path>
                    <path fill="#f49e00" d="M160.89 0h1.99v264.63h-1.99z">
                      </path>
                    <path fill="#f5a000" d="M162.22 0h1.99v264.63h-1.99z">
                      </path>
                    <path fill="#f5a000" d="M163.55 0h1.99v264.63h-1.99z">
                      </path>
                    <path fill="#f5a000" d="M164.88 0h1.99v264.63h-1.99z">
                      </path>
                    <path fill="#f5a000" d="M166.21 0h1.99v264.63h-1.99z">
                      </path>
                    <path fill="#f5a200" d="M167.54 0h1.99v264.63h-1.99z">
                      </path>
                    <path fill="#f5a200" d="M168.87 0h1.99v264.63h-1.99z">
                      </path>
                    <path fill="#f5a200" d="M170.2 0h1.99v264.63h-1.99z">
                      </path>
                    <path fill="#f5a200" d="M171.53 0h1.99v264.63h-1.99z">
                      </path>
                    <path fill="#f5a200" d="M172.86 0h1.99v264.63h-1.99z">
                      </path>
                    <path fill="#f5a200" d="M174.19 0h1.99v264.63h-1.99z">
                      </path>
                    <path fill="#f5a400" d="M175.52 0h1.99v264.63h-1.99z">
                      </path>
                    <path fill="#f5a400" d="M176.85 0h1.99v264.63h-1.99z">
                      </path>
                    <path fill="#f5a400" d="M178.18 0h1.99v264.63h-1.99z">
                      </path>
                    <path fill="#f5a400" d="M179.51 0h1.99v264.63h-1.99z">
                      </path>
                    <path fill="#f5a400" d="M180.84 0h1.99v264.63h-1.99z">
                      </path>
                    <path fill="#f5a400" d="M182.17 0h1.99v264.63h-1.99z">
                      </path>
                    <path fill="#f5a500" d="M183.5 0h1.99v264.63h-1.99z">
                      </path>
                    <path fill="#f5a500" d="M184.83 0h1.99v264.63h-1.99z">
                      </path>
                    <path fill="#f5a500" d="M186.16 0h1.99v264.63h-1.99z">
                      </path>
                    <path fill="#f5a500" d="M187.49 0h1.99v264.63h-1.99z">
                      </path>
                    <path fill="#f6a700" d="M188.82 0h1.99v264.63h-1.99z">
                      </path>
                    <path fill="#f6a700" d="M190.15 0h1.99v264.63h-1.99z">
                      </path>
                    <path fill="#f6a700" d="M191.47 0h1.99v264.63h-1.99z">
                      </path>
                    <path fill="#f6a700" d="M192.8 0h1.99v264.63h-1.99z">
                      </path>
                    <path fill="#f6a700" d="M194.13 0h1.99v264.63h-1.99z">
                      </path>
                    <path fill="#f6a700" d="M195.46 0h1.99v264.63h-1.99z">
                      </path>
                    <path fill="#f6a900" d="M196.79 0h1.99v264.63h-1.99z">
                      </path>
                    <path fill="#f6a900" d="M198.12 0h1.99v264.63h-1.99z">
                      </path>
                    <path fill="#f6a900" d="M199.45 0h1.99v264.63h-1.99z">
                      </path>
                    <path fill="#f6a900" d="M200.78 0h1.99v264.63h-1.99z">
                      </path>
                    <path fill="#f6ab00" d="M202.11 0h1.99v264.63h-1.99z">
                      </path>
                    <path fill="#f6ab00" d="M203.44 0h1.99v264.63h-1.99z">
                      </path>
                    <path fill="#f6ab00" d="M204.77 0h1.99v264.63h-1.99z">
                      </path>
                    <path fill="#f6ab00" d="M206.1 0h1.99v264.63h-1.99z">
                      </path>
                    <path fill="#f6ab00" d="M207.43 0h1.99v264.63h-1.99z">
                      </path>
                    <path fill="#f7ad00" d="M208.76 0h1.99v264.63h-1.99z">
                      </path>
                    <path fill="#f7ad00" d="M210.09 0h1.99v264.63h-1.99z">
                      </path>
                    <path fill="#f7ad00" d="M211.42 0h1.99v264.63h-1.99z">
                      </path>
                    <path fill="#f7ad00" d="M212.75 0h1.99v264.63h-1.99z">
                      </path>
                    <path fill="#f7af00" d="M214.08 0h1.99v264.63h-1.99z">
                      </path>
                    <path fill="#f7af00" d="M215.41 0h1.99v264.63h-1.99z">
                      </path>
                    <path fill="#f7af00" d="M216.74 0h1.99v264.63h-1.99z">
                      </path>
                    <path fill="#f7af00" d="M218.07 0h1.99v264.63h-1.99z">
                      </path>
                    <path fill="#f7af00" d="M219.4 0h1.99v264.63h-1.99z">
                      </path>
                    <path fill="#f7af00" d="M220.73 0h1.99v264.63h-1.99z">
                      </path>
                    <path fill="#f8b100" d="M222.06 0h1.99v264.63h-1.99z">
                      </path>
                    <path fill="#f8b100" d="M223.39 0h1.99v264.63h-1.99z">
                      </path>
                    <path fill="#f8b100" d="M224.72 0h1.99v264.63h-1.99z">
                      </path>
                    <path fill="#f8b100" d="M226.05 0h1.99v264.63h-1.99z">
                      </path>
                    <path fill="#f8b300" d="M227.38 0h1.99v264.63h-1.99z">
                      </path>
                    <path fill="#f8b300" d="M228.71 0h1.99v264.63h-1.99z">
                      </path>
                    <path fill="#f8b300" d="M230.04 0h1.99v264.63h-1.99z">
                      </path>
                    <path fill="#f8b300" d="M231.37 0h1.99v264.63h-1.99z">
                      </path>
                    <path fill="#f8b300" d="M232.69 0h1.99v264.63h-1.99z">
                      </path>
                    <path fill="#f8b300" d="M234.02 0h1.99v264.63h-1.99z">
                      </path>
                    <path fill="#f8b500" d="M235.35 0h1.99v264.63h-1.99z">
                      </path>
                    <path fill="#f8b500" d="M236.68 0h1.99v264.63h-1.99z">
                      </path>
                    <path fill="#f8b500" d="M238.01 0H240v264.63h-1.99z">
                      </path>
                    <path fill="#f8b500" d="M239.34 0h1.99v264.63h-1.99z">
                      </path>
                    <path fill="#f8b500" d="M240.67 0h1.99v264.63h-1.99z">
                      </path>
                    <path fill="#f8b500" d="M242 0h1.99v264.63H242z">
                      </path>
                    <path fill="#f9b700" d="M243.33 0h1.99v264.63h-1.99z">
                      </path>
                    <path fill="#f9b700" d="M244.66 0h1.99v264.63h-1.99z">
                      </path>
                    <path fill="#f9b700" d="M245.99 0h1.99v264.63h-1.99z">
                      </path>
                    <path fill="#f9b700" d="M247.32 0h1.99v264.63h-1.99z">
                      </path>
                    <path fill="#f9b900" d="M248.65 0h1.99v264.63h-1.99z">
                      </path>
                    <path fill="#f9b900" d="M249.98 0h1.99v264.63h-1.99z">
                      </path>
                    <path fill="#f9b900" d="M251.31 0h1.99v264.63h-1.99z">
                      </path>
                    <path fill="#f9b900" d="M252.64 0h1.99v264.63h-1.99z">
                      </path>
                    <path fill="#f9b900" d="M253.97 0h1.99v264.63h-1.99z">
                      </path>
                    <path fill="#f9b900" d="M255.3 0h1.99v264.63h-1.99z">
                      </path>
                    <path fill="#f9bb00" d="M256.63 0h1.99v264.63h-1.99z">
                      </path>
                    <path fill="#f9bb00" d="M257.96 0h1.99v264.63h-1.99z">
                      </path>
                    <path fill="#f9bb00" d="M259.29 0h1.99v264.63h-1.99z">
                      </path>
                    <path fill="#f9bb00" d="M260.62 0h1.99v264.63h-1.99z">
                      </path>
                    <path fill="#fabd00" d="M261.95 0h1.99v264.63h-1.99z">
                      </path>
                    <path fill="#fabd00" d="M263.28 0h1.99v264.63h-1.99z">
                      </path>
                    <path fill="#fabd00" d="M264.61 0h1.99v264.63h-1.99z">
                      </path>
                    <path fill="#fabd00" d="M265.94 0h1.99v264.63h-1.99z">
                      </path>
                    <path fill="#fabd00" d="M267.27 0h1.99v264.63h-1.99z">
                      </path>
                    <path fill="#fabd00" d="M268.6 0h1.99v264.63h-1.99z">
                      </path>
                    <path fill="#fabe00" d="M269.93 0h1.99v264.63h-1.99z">
                      </path>
                    <path fill="#fabe00" d="M271.26 0h1.99v264.63h-1.99z">
                      </path>
                    <path fill="#fabe00" d="M272.59 0h1.99v264.63h-1.99z">
                      </path>
                    <path fill="#fac000" d="M273.92 0h1.99v264.63h-1.99z">
                      </path>
                    <path fill="#fac000" d="M275.24 0h1.99v264.63h-1.99z">
                      </path>
                    <path fill="#fac000" d="M276.57 0h1.99v264.63h-1.99z">
                      </path>
                    <path fill="#fac000" d="M277.9 0h1.99v264.63h-1.99z">
                      </path>
                    <path fill="#fac000" d="M279.23 0h1.99v264.63h-1.99z">
                      </path>
                    <path fill="#fac000" d="M280.56 0h1.99v264.63h-1.99z">
                      </path>
                    <path fill="#fbc200" d="M281.89 0h1.99v264.63h-1.99z">
                      </path>
                    <path fill="#fbc200" d="M283.22 0h1.99v264.63h-1.99z">
                      </path>
                    <path fill="#fbc200" d="M284.55 0h1.99v264.63h-1.99z">
                      </path>
                    <path fill="#fbc200" d="M285.88 0h1.99v264.63h-1.99z">
                      </path>
                    <path fill="#fbc400" d="M287.21 0h1.99v264.63h-1.99z">
                      </path>
                    <path fill="#fbc400" d="M288.54 0h1.99v264.63h-1.99z">
                      </path>
                    <path fill="#fbc400" d="M289.87 0h1.99v264.63h-1.99z">
                      </path>
                    <path fill="#fbc400" d="M291.2 0h1.99v264.63h-1.99z">
                      </path>
                    <path fill="#fbc400" d="M292.53 0h1.99v264.63h-1.99z">
                      </path>
                    <path fill="#fbc400" d="M293.86 0h1.99v264.63h-1.99z">
                      </path>
                    <path fill="#fbc600" d="M295.19 0h1.99v264.63h-1.99z">
                      </path>
                    <path fill="#fbc600" d="M296.52 0h1.99v264.63h-1.99z">
                      </path>
                    <path fill="#fbc600" d="M297.85 0h1.99v264.63h-1.99z">
                      </path>
                    <path fill="#fbc600" d="M299.18 0h1.99v264.63h-1.99z">
                      </path>
                    <path fill="#fcc800" d="M300.51 0h1.99v264.63h-1.99z">
                      </path>
                    <path fill="#fcc800" d="M301.84 0h1.99v264.63h-1.99z">
                      </path>
                    <path fill="#fcc800" d="M303.17 0h1.99v264.63h-1.99z">
                      </path>
                    <path fill="#fcc800" d="M304.5 0h1.99v264.63h-1.99z">
                      </path>
                    <path fill="#fcc800" d="M305.83 0h1.99v264.63h-1.99z">
                      </path>
                    <path fill="#fcc800" d="M307.16 0h1.99v264.63h-1.99z">
                      </path>
                    <path fill="#fcc900" d="M308.49 0h1.99v264.63h-1.99z">
                      </path>
                    <path fill="#fcc900" d="M309.82 0h1.99v264.63h-1.99z">
                      </path>
                    <path fill="#fcc900" d="M311.15 0h1.99v264.63h-1.99z">
                      </path>
                    <path fill="#fcc900" d="M312.48 0h1.99v264.63h-1.99z">
                      </path>
                    <path fill="#fcc900" d="M313.81 0h1.99v264.63h-1.99z">
                      </path>
                    <path fill="#fcc900" d="M315.14 0h1.99v264.63h-1.99z">
                      </path>
                    <path fill="#fccb00" d="M316.47 0h1.99v264.63h-1.99z">
                      </path>
                    <path fill="#fccb00" d="M317.79 0h1.99v264.63h-1.99z">
                      </path>
                    <path fill="#fccb00" d="M319.12 0h1.99v264.63h-1.99z">
                      </path>
                    <path fill="#fccb00" d="M320.45 0h1.99v264.63h-1.99z">
                      </path>
                    <path fill="#fdcd00" d="M321.78 0h1.99v264.63h-1.99z">
                      </path>
                    <path fill="#fdcd00" d="M323.11 0h1.99v264.63h-1.99z">
                      </path>
                    <path fill="#fdcd00" d="M324.44 0h1.99v264.63h-1.99z">
                      </path>
                    <path fill="#fdcd00" d="M325.77 0h1.99v264.63h-1.99z">
                      </path>
                    <path fill="#fdcd00" d="M327.1 0h1.99v264.63h-1.99z">
                      </path>
                    <path fill="#fdcd00" d="M328.43 0h1.99v264.63h-1.99z">
                      </path>
                    <path fill="#fdcf00" d="M329.76 0h1.99v264.63h-1.99z">
                      </path>
                    <path fill="#fdcf00" d="M331.09 0h1.99v264.63h-1.99z">
                      </path>
                    <path fill="#fdcf00" d="M332.42 0h1.99v264.63h-1.99z">
                      </path>
                    <path fill="#fdcf00" d="M333.75 0h1.99v264.63h-1.99z">
                      </path>
                    <path fill="#fdd000" d="M335.08 0h1.99v264.63h-1.99z">
                      </path>
                    <path fill="#fdd000" d="M336.41 0h1.99v264.63h-1.99z">
                      </path>
                    <path fill="#fdd000" d="M337.74 0h2.66v264.63h-2.66z">
                      </path>
                    </g>
                    <path d="M180.23 264.63h-47.36l17.8-27.63L203 155.62l23.68 36.82L198 237l-17.8 27.67zm-64.66 0l17.8-27.63 61-94.79-24.17-37.57L85.1 237l-17.8 27.63z" fill="#641d87" fill-rule="evenodd">
                      </path>
                    </g>
                    </g>
                    </svg>
                    </svg> 
                    <!---->
                    </g>
                    </g> 
                    <g transform="translate(0,67.64705657958984)">
                      <g data-gra="path-name" fill-rule="" class="tp-name iconsvg-namesvg" transform="translate(0,0)">
                      <g transform="scale(1)">
                      <g>
                      <path d="M0.36 0L5.34 0 6.43-7.88 6.37-11.69 6.48-11.72 7.65-7.76 11.02 0 16.06 0 18.81-19.7 13.86-19.7 12.61-10.77 12.66-7.37 12.55-7.35 11.44-11.3 7.85-19.7 3.12-19.7ZM35.54-15.78C34.62-18.92 31.83-19.98 29.27-19.98 25.38-19.98 21.2-17.89 20.56-13.3L19.62-6.54C18.98-2 22.51 0.28 26.41 0.28 30.36 0.28 34.51-2 35.15-6.54L35.81-11.44 27.88-11.44 27.33-7.37 30.47-7.37 30.36-6.54C30.17-5.04 28.61-4.29 27.16-4.29 25.69-4.29 24.4-5.04 24.6-6.54L25.55-13.3C25.74-14.72 27.22-15.56 28.61-15.56 29.72-15.56 30.78-15.03 31.08-13.86ZM44.25-19.7L39.27-19.7 36.51 0 41.49 0ZM44.61 0L49.59 0 50.67-7.88 50.62-11.69 50.73-11.72 51.9-7.76 55.27 0 60.3 0 63.06-19.7 58.1-19.7 56.85-10.77 56.91-7.37 56.8-7.35 55.68-11.3 52.09-19.7 47.36-19.7ZM72.77-12.97L70.35-19.7 64.53-19.7 68.68-9.82 61.78 0 67.59 0 71.88-6.71 74.41 0 80.2 0 76.05-9.82 82.95-19.7 77.17-19.7ZM90.77-10.44L82.09-10.44 81.42-5.7 90.11-5.7ZM101.01-10.07L99.51-5.4 99.46-5.4 99.18-10.1 97.43-19.73 92.08-19.73 96.42 0 100.99 0 110.84-19.73 105.5-19.73ZM114.23-13.47C116.65-17.28 121.05-15.05 118.16-11.91L108.61-2.62 109.47-0.03 122.16-0.03 122.83-4.76 118.38-4.76 115.99-4.29 120.91-8.4C122.75-10.07 123.86-12.08 124.14-13.91 124.56-17 122.53-19.98 118.18-19.98 115.15-19.98 112.81-18.59 110.78-15.5ZM124.45-2.64C124.22-1.09 125.28 0.17 126.81 0.17 128.34 0.17 129.76-1.09 129.98-2.64 130.21-4.17 129.12-5.4 127.59-5.4 126.06-5.4 124.67-4.17 124.45-2.64ZM138.64 0.28C142.01 0.28 146.01-1.67 146.6-5.84L147.74-13.94C148.32-18.14 144.82-19.98 141.45-19.98 138.11-19.98 134.07-18.14 133.49-13.94L132.35-5.84C131.76-1.67 135.3 0.28 138.64 0.28ZM140.84-15.64C141.95-15.64 143.06-14.94 143.01-13.94L141.87-5.79C141.67-4.34 140.36-3.95 139.22-3.95 138.03-3.95 136.91-4.62 137.08-5.79L138.22-13.94C138.44-14.94 139.67-15.64 140.84-15.64Z" transform="translate(-0.36000001430511475, 19.979999542236328)">
                      </path>
                    </g> 
                    <!----> 
                    <!----> 
                    <!----> 
                    <!----> 
                    <!----> 
                    <!----> 
                    <!---->
                    </g>
                    </g> 
                    <g data-gra="path-slogan" fill-rule="" class="tp-slogan iconsvg-slogansvg" fill="#ed6c00" transform="translate(49.681724548339844,27.260000228881836)">
                      <!----> 
                    <!----> 
                    <g transform="scale(1, 1)">
                      <g transform="scale(1)">
                      <path d="M1.94 0L0.28-7.87L1.31-7.87L2.14-3.59Q2.24-2.94 2.36-2.32Q2.48-1.69 2.59-1.04L2.59-1.04L2.64-1.04Q2.77-1.69 2.92-2.32Q3.06-2.95 3.19-3.59L3.19-3.59L4.28-7.87L5.20-7.87L6.29-3.59Q6.43-2.96 6.58-2.33Q6.72-1.69 6.86-1.04L6.86-1.04L6.91-1.04Q7.02-1.69 7.13-2.32Q7.24-2.95 7.36-3.59L7.36-3.59L8.18-7.87L9.14-7.87L7.51 0L6.31 0L5.12-4.74Q5.02-5.20 4.93-5.63Q4.84-6.07 4.74-6.53L4.74-6.53L4.69-6.53Q4.60-6.07 4.49-5.63Q4.39-5.20 4.30-4.74L4.30-4.74L3.13 0L1.94 0ZM10.51 0L10.51-7.87L15.05-7.87L15.05-7.03L11.51-7.03L11.51-4.56L14.50-4.56L14.50-3.71L11.51-3.71L11.51-0.85L15.17-0.85L15.17 0L10.51 0ZM16.84 0L16.84-7.87L19.18-7.87Q19.78-7.87 20.27-7.76Q20.77-7.66 21.13-7.43Q21.48-7.20 21.68-6.83Q21.88-6.47 21.88-5.95L21.88-5.95Q21.88-5.36 21.54-4.89Q21.20-4.42 20.51-4.24L20.51-4.24L20.51-4.19Q21.37-4.06 21.85-3.59Q22.33-3.12 22.33-2.30L22.33-2.30Q22.33-1.73 22.12-1.30Q21.90-0.86 21.50-0.58Q21.11-0.29 20.56-0.14Q20.00 0 19.34 0L19.34 0L16.84 0ZM17.83-4.51L19.00-4.51Q20.02-4.51 20.45-4.86Q20.89-5.21 20.89-5.87L20.89-5.87Q20.89-6.52 20.43-6.80Q19.97-7.08 19.04-7.08L19.04-7.08L17.83-7.08L17.83-4.51ZM17.83-0.79L19.20-0.79Q20.22-0.79 20.78-1.17Q21.35-1.55 21.35-2.35L21.35-2.35Q21.35-3.08 20.80-3.43Q20.24-3.77 19.20-3.77L19.20-3.77L17.83-3.77L17.83-0.79ZM23.15-1.02L23.75-1.72Q24.17-1.27 24.74-1.00Q25.31-0.73 25.92-0.73L25.92-0.73Q26.70-0.73 27.13-1.09Q27.56-1.44 27.56-2.02L27.56-2.02Q27.56-2.32 27.46-2.53Q27.36-2.74 27.19-2.89Q27.01-3.04 26.77-3.16Q26.53-3.28 26.26-3.41L26.26-3.41L25.13-3.90Q24.85-4.02 24.56-4.19Q24.28-4.36 24.05-4.60Q23.82-4.84 23.68-5.17Q23.53-5.50 23.53-5.93L23.53-5.93Q23.53-6.37 23.72-6.76Q23.90-7.14 24.23-7.42Q24.56-7.70 25.01-7.86Q25.46-8.02 26.00-8.02L26.00-8.02Q26.71-8.02 27.31-7.75Q27.91-7.48 28.33-7.04L28.33-7.04L27.79-6.40Q27.43-6.74 26.99-6.94Q26.56-7.14 26.00-7.14L26.00-7.14Q25.34-7.14 24.94-6.83Q24.54-6.53 24.54-5.99L24.54-5.99Q24.54-5.70 24.65-5.50Q24.77-5.30 24.96-5.15Q25.15-5.00 25.38-4.89Q25.61-4.78 25.85-4.68L25.85-4.68L26.96-4.20Q27.30-4.06 27.60-3.87Q27.90-3.68 28.12-3.44Q28.33-3.19 28.46-2.86Q28.58-2.53 28.58-2.10L28.58-2.10Q28.58-1.63 28.40-1.22Q28.21-0.82 27.86-0.51Q27.52-0.20 27.02-0.03Q26.53 0.14 25.91 0.14L25.91 0.14Q25.08 0.14 24.37-0.17Q23.66-0.48 23.15-1.02L23.15-1.02ZM30.13 0L30.13-7.87L34.67-7.87L34.67-7.03L31.13-7.03L31.13-4.56L34.12-4.56L34.12-3.71L31.13-3.71L31.13-0.85L34.79-0.85L34.79 0L30.13 0ZM37.45-7.07L37.45-4.14L38.77-4.14Q39.70-4.14 40.19-4.52Q40.68-4.90 40.68-5.66L40.68-5.66Q40.68-6.44 40.19-6.76Q39.70-7.07 38.77-7.07L38.77-7.07L37.45-7.07ZM41.90 0L40.78 0L38.88-3.32L37.45-3.32L37.45 0L36.46 0L36.46-7.87L38.92-7.87Q39.52-7.87 40.03-7.76Q40.54-7.64 40.90-7.38Q41.27-7.12 41.47-6.70Q41.68-6.28 41.68-5.66L41.68-5.66Q41.68-4.74 41.20-4.19Q40.72-3.64 39.91-3.43L39.91-3.43L41.90 0ZM44.70 0L42.18-7.87L43.25-7.87L44.51-3.62Q44.72-2.92 44.89-2.32Q45.05-1.72 45.28-1.02L45.28-1.02L45.32-1.02Q45.54-1.72 45.71-2.32Q45.88-2.92 46.08-3.62L46.08-3.62L47.34-7.87L48.36-7.87L45.86 0L44.70 0Z" transform="translate(-0.276, 8.016)">
                      </path>
                    </g>
                    </g>
                    </g>
                    </g>
                    </g>
                    <defs v-gra="od">
                      </defs>
</svg>