<svg data-v-0dd9719b="" version="1.0" xmlns="http://www.w3.org/2000/svg" xmlns:xlink="http://www.w3.org/1999/xlink" width="100%" height="100%" viewBox="0 0 340.000000 250.000000" preserveAspectRatio="xMidYMid meet" color-interpolation-filters="sRGB" style="margin: auto;"> <rect data-v-0dd9719b="" x="0" y="0" width="100%" height="100%" fill="#0000" fill-opacity="1" class="background"></rect> <rect data-v-0dd9719b="" x="0" y="0" width="100%" height="100%" fill="url(#watermark)" fill-opacity="1" class="watermarklayer"></rect> <g data-v-0dd9719b="" fill="#222222" class="bordersvg b-d1" transform="translate(82.61499786376953,92.18200302124023)"><rect fill-opacity="0" stroke="#222222" stroke-width="2" x="0" y="0" width="179.77000427246094" height="60.6359977722168"></rect> <polyline fill-opacity="0" stroke="#222222" stroke-width="8" stroke-opacity="0.5" points="-5,8 -5,65.6359977722168 171.77000427246094,65.6359977722168"></polyline> <g><g><rect data-gra="graph-name-bg" stroke-width="2" class="i-icon-bg" x="0" y="0" width="179.77000427246094" height="60.6359977722168" fill-opacity="0"></rect> <!----> <!----> </g> <g transform="translate(10,10)"><g data-gra="path-name" fill-rule="" class="tp-name" transform="translate(0,0)"><g transform="scale(1)"><g><path d="M22.79-12.85L21.35-7.67 21.25-7.67 21.18-12.85 19.85-21.56 15.09-21.56 11.1-12.88 9.77-7.67 9.63-7.67 9.7-12.92 8.44-24.78 1.93-24.78 5.64 0 11.45 0 14.35-6.9 16.1-12.53 16.21-12.53 16.28-6.86 17.54 0 23.35 0 33.95-24.78 27.48-24.78ZM41.37-18.87L52.29-18.87 53.13-24.78 35.88-24.78 32.41 0 49.67 0 50.47-5.92 39.55-5.92 40.08-9.63 50.12-9.63 50.89-15.19 40.84-15.19ZM73.4-17.22C74.2-21.95 71.12-24.78 66.4-24.78L56.46-24.78 52.99 0 63.11 0C68.6 0 71.61-2.42 72.8-6.41 73.4-8.29 73.43-11.48 70.25-13.2 72.17-14.11 73.19-16.1 73.4-17.22ZM61.39-15.09L62.02-19.5 65.66-19.5C68.81-19.5 68.08-15.09 65.03-15.09ZM60.06-5.5L60.76-10.57 64.4-10.57C68.11-10.57 67.48-5.5 63.7-5.5ZM73.99-4.13C75.88-1.16 79.56 0.35 82.53 0.35 87.89 0.35 92.09-2.07 93-6.9 94.15-13.06 89.95-14.7 85.65-15.51 83.76-15.93 82.5-16.56 82.67-17.99 82.81-19.25 84.14-19.85 85.72-19.81 87.15-19.78 88.8-19.22 89.84-18.03L94.4-21.18C92.26-24.29 89.46-25.13 86.45-25.13 81.9-25.13 77.42-23.35 76.48-18.27 75.6-13.58 79.1-10.47 82.98-9.84 84.98-9.56 87.15-8.89 86.87-7.35 86.63-6.06 85.16-5.46 83.48-5.46 81.62-5.46 79.56-6.27 78.47-7.84ZM103.67-18.87L114.59-18.87 115.43-24.78 98.18-24.78 94.71 0 111.97 0 112.77-5.92 101.85-5.92 102.38-9.63 112.42-9.63 113.19-15.19 103.15-15.19ZM128.87 0L136.68 0 130.73-8.51C134.12-10.12 136.08-11.66 136.71-16.24 137.41-22.05 133.77-24.78 128.66-24.78L118.76-24.78 115.29 0 121.63 0 122.71-7.88 123.83-7.88ZM123.48-13.27L124.29-18.94 127.96-18.94C129.81-18.94 130.55-17.64 130.38-16.14 130.2-14.7 129.08-13.27 127.16-13.27ZM149.34-12.67L147.46-6.79 147.38-6.79 147.03-12.71 144.83-24.82 138.11-24.82 143.57 0 149.31 0 161.7-24.82 154.98-24.82Z" transform="translate(-1.9300000667572021, 25.1299991607666)"></path></g> <!----> <!----> <!----> <!----> <!----> <!----> <!----></g></g> <g data-gra="path-slogan" fill-rule="" class="tp-slogan" transform="translate(5,32.47999954223633)"><rect x="0" height="1" y="3.580000400543213" width="44.47000312805176"></rect> <rect height="1" y="3.580000400543213" width="44.47000312805176" x="105.30000114440918"></rect> <g transform="translate(47.47000312805176,0)"><g transform="scale(1)"><path d="M1.08 0L1.08-7.87L2.11-7.87L4.96-2.93L5.81-1.30L5.86-1.30Q5.82-1.90 5.78-2.54Q5.74-3.18 5.74-3.80L5.74-3.80L5.74-7.87L6.68-7.87L6.68 0L5.65 0L2.80-4.96L1.94-6.58L1.90-6.58Q1.94-5.98 1.99-5.36Q2.03-4.74 2.03-4.12L2.03-4.12L2.03 0L1.08 0ZM8.39-3.94L8.39-3.94Q8.39-4.88 8.66-5.64Q8.93-6.40 9.41-6.92Q9.90-7.45 10.56-7.73Q11.22-8.02 12.01-8.02L12.01-8.02Q12.83-8.02 13.37-7.71Q13.92-7.40 14.27-7.04L14.27-7.04L13.70-6.41Q13.40-6.72 13.01-6.93Q12.62-7.14 12.02-7.14L12.02-7.14Q11.42-7.14 10.94-6.92Q10.46-6.70 10.13-6.28Q9.79-5.87 9.61-5.28Q9.42-4.69 9.42-3.96L9.42-3.96Q9.42-3.22 9.59-2.62Q9.77-2.03 10.10-1.61Q10.43-1.19 10.91-0.96Q11.40-0.73 12.04-0.73L12.04-0.73Q12.46-0.73 12.83-0.86Q13.21-0.98 13.45-1.20L13.45-1.20L13.45-3.25L11.78-3.25L11.78-4.08L14.36-4.08L14.36-0.77Q13.98-0.37 13.35-0.11Q12.72 0.14 11.93 0.14L11.93 0.14Q11.15 0.14 10.50-0.13Q9.85-0.41 9.38-0.93Q8.92-1.45 8.65-2.21Q8.39-2.98 8.39-3.94ZM16.25 0L16.25-7.87L17.24-7.87L17.24 0L16.25 0ZM19.40 0L19.40-7.87L20.44-7.87L23.28-2.93L24.13-1.30L24.18-1.30Q24.14-1.90 24.10-2.54Q24.06-3.18 24.06-3.80L24.06-3.80L24.06-7.87L25.01-7.87L25.01 0L23.98 0L21.12-4.96L20.27-6.58L20.22-6.58Q20.27-5.98 20.31-5.36Q20.35-4.74 20.35-4.12L20.35-4.12L20.35 0L19.40 0ZM26.27 0L28.56-4.07L26.42-7.87L27.53-7.87L28.60-5.86Q28.75-5.58 28.89-5.32Q29.03-5.06 29.21-4.72L29.21-4.72L29.26-4.72Q29.42-5.06 29.55-5.32Q29.68-5.58 29.82-5.86L29.82-5.86L30.86-7.87L31.92-7.87L29.77-4.02L32.06 0L30.96 0L29.81-2.12Q29.65-2.41 29.49-2.72Q29.33-3.02 29.14-3.38L29.14-3.38L29.09-3.38Q28.92-3.02 28.76-2.72Q28.61-2.41 28.46-2.12L28.46-2.12L27.32 0L26.27 0ZM32.41-2.63L32.41-3.38L35.17-3.38L35.17-2.63L32.41-2.63ZM37.86 0L35.34-7.87L36.41-7.87L37.67-3.62Q37.88-2.92 38.05-2.32Q38.21-1.72 38.44-1.02L38.44-1.02L38.48-1.02Q38.70-1.72 38.87-2.32Q39.04-2.92 39.24-3.62L39.24-3.62L40.50-7.87L41.52-7.87L39.02 0L37.86 0ZM42 0L42-0.59Q42.86-1.45 43.54-2.15Q44.21-2.84 44.66-3.44Q45.12-4.03 45.36-4.53Q45.60-5.03 45.60-5.50L45.60-5.50Q45.60-6.16 45.24-6.58Q44.88-7.00 44.15-7.00L44.15-7.00Q43.67-7.00 43.26-6.73Q42.85-6.46 42.52-6.07L42.52-6.07L41.95-6.64Q42.43-7.16 42.97-7.48Q43.51-7.80 44.27-7.80L44.27-7.80Q45.34-7.80 45.95-7.18Q46.56-6.56 46.56-5.54L46.56-5.54Q46.56-5.00 46.33-4.46Q46.09-3.91 45.68-3.33Q45.26-2.75 44.69-2.12Q44.12-1.49 43.44-0.78L43.44-0.78Q43.75-0.80 44.09-0.83Q44.42-0.85 44.72-0.85L44.72-0.85L46.94-0.85L46.94 0L42 0ZM48.26-0.60L48.26-0.60Q48.26-0.95 48.47-1.16Q48.68-1.37 48.98-1.37L48.98-1.37Q49.27-1.37 49.48-1.16Q49.69-0.95 49.69-0.60L49.69-0.60Q49.69-0.28 49.48-0.07Q49.27 0.14 48.98 0.14L48.98 0.14Q48.68 0.14 48.47-0.07Q48.26-0.28 48.26-0.60ZM53.46 0.14L53.46 0.14Q52.30 0.14 51.65-0.89Q51-1.92 51-3.85L51-3.85Q51-5.78 51.65-6.79Q52.30-7.80 53.46-7.80L53.46-7.80Q54.61-7.80 55.26-6.79Q55.91-5.78 55.91-3.85L55.91-3.85Q55.91-1.92 55.26-0.89Q54.61 0.14 53.46 0.14ZM53.46-0.65L53.46-0.65Q53.80-0.65 54.07-0.83Q54.34-1.02 54.53-1.41Q54.73-1.80 54.84-2.41Q54.95-3.01 54.95-3.85L54.95-3.85Q54.95-4.69 54.84-5.29Q54.73-5.89 54.53-6.27Q54.34-6.65 54.07-6.83Q53.80-7.01 53.46-7.01L53.46-7.01Q53.12-7.01 52.85-6.83Q52.57-6.65 52.37-6.27Q52.18-5.89 52.07-5.29Q51.96-4.69 51.96-3.85L51.96-3.85Q51.96-2.17 52.37-1.41Q52.79-0.65 53.46-0.65Z" transform="translate(-1.08, 8.016)"></path></g></g></g></g></g></g><defs v-gra="od"></defs></svg>